# xmcd
#
# Track frame offsets:
#	150
#	12875
#	23735
#	35505
#	47085
#	57112
#	69697
#	80497
#	91492
#	103175
#	115475
#	127380
#	137975
#	151335
#	172440
#
# Disc length: 2442 seconds
# Revision: 11
# Processed by: cddbd v1.5.2PL0 Copyright (c) Steve Scherf et al.
# Submitted via: dBpowerAMP V12.0
#
DISCID=db09880f
DTITLE=Various Artist - Classic Country - 1960-1964 D2
DYEAR=1999
DGENRE=Country
TTITLE0=Patsy Cline - I Fall To Pieces
TTITLE1=Faron Young - Hello Walls
TTITLE2=Jim Reeves - Welcome To My World
TTITLE3=Don Gibson - Sea of Heartbreak
TTITLE4=George Hamilton IV - Abilene
TTITLE5=Bobby Bare - Detroit City
TTITLE6=Dave Dudley - Six Days On the Road
TTITLE7=Buck Owens - My Heart Skips A Beat
TTITLE8=George Jones - She Thinks I Still Care
TTITLE9=Roy Drusky - There Hearts In A Tangle
TTITLE10=Skeeter Davis - The End of the World
TTITLE11=Connie Smith - Once A Day
TTITLE12=Carl Butler - Don't Let Me Cross Over
TTITLE13=Marty Robbins - El Paso
TTITLE14=The Everly Brothers - Cathy's Clown
EXTD=
EXTT0=
EXTT1=
EXTT2=
EXTT3=
EXTT4=
EXTT5=
EXTT6=
EXTT7=
EXTT8=
EXTT9=
EXTT10=
EXTT11=
EXTT12=
EXTT13=
EXTT14=
PLAYORDER=
